<svg width="64" height="64" viewBox="0 0 64 64" fill="none" xmlns="http://www.w3.org/2000/svg">
  <rect width="64" height="64" rx="14" fill="#F7F7F7"></rect>
  <path d="M13 34H16.5L20.5 24H40.5L49 34H53C54.6569 34 56 35.3431 56 37V43H51.5C50.8 46.4 47.8 49 44.2 49C40.6 49 37.6 46.4 36.9 43H27.1C26.4 46.4 23.4 49 19.8 49C16.2 49 13.2 46.4 12.5 43H8V39C8 36.2386 10.2386 34 13 34Z" fill="#7C988C"></path>
  <path d="M23 27H31V34H20.5L23 27Z" fill="white"></path>
  <path d="M34 27H39L45 34H34V27Z" fill="white"></path>
  <circle cx="19.8" cy="41.8" r="3.8" fill="#101828"></circle>
  <circle cx="44.2" cy="41.8" r="3.8" fill="#101828"></circle>
</svg>